<svg width="16" height="16" viewBox="0 0 16 16" fill="none" xmlns="http://www.w3.org/2000/svg">
<path d="M8.59624 15.9139C8.5231 15.9139 8.44994 15.8996 8.3768 15.8852C8.29634 15.8709 8.2232 15.8422 8.15006 15.8206C8.09886 15.8206 8.05499 15.8206 8.00379 15.8206C7.85019 15.835 7.69659 15.8565 7.54299 15.8493C7.41134 15.8422 7.29431 15.7776 7.17728 15.7274C7.14071 15.713 7.10415 15.7059 7.06758 15.6987C7.04563 15.6987 7.03099 15.6987 7.00905 15.6987C6.95785 15.6987 6.90666 15.7059 6.85546 15.7202C6.80426 15.7274 6.75307 15.7346 6.70187 15.7489C6.62141 15.7776 6.54094 15.792 6.46049 15.8063C6.3654 15.8207 6.26301 15.8063 6.17524 15.7776C6.02165 15.7274 5.91924 15.6198 5.80221 15.5193L5.76563 15.505C5.76563 15.505 5.73637 15.4978 5.72175 15.4906C5.56815 15.4691 5.40725 15.4691 5.26097 15.4117C5.1732 15.3759 5.10736 15.3256 5.04153 15.2611C4.9757 15.2037 4.93915 15.1104 4.89526 15.0387C4.88795 15.0243 4.88063 15.0171 4.87332 15.0028C4.85869 14.9956 4.85136 14.9813 4.83674 14.9741C4.82211 14.9669 4.80748 14.9597 4.79285 14.9526C4.77822 14.9526 4.7636 14.9526 4.74897 14.9454H4.70509C4.70509 14.9454 4.67583 14.9598 4.6612 14.9669C4.61732 14.9884 4.57344 15.0028 4.52955 15.0171C4.4491 15.0387 4.36131 15.0315 4.28817 15.0028C4.2004 14.9741 4.11994 14.9311 4.05411 14.8737C3.98829 14.8163 3.92246 14.7517 3.84932 14.6871C3.83469 14.6799 3.82006 14.6656 3.80543 14.6584C3.76155 14.6441 3.71035 14.6297 3.66646 14.6082C3.60795 14.5867 3.55675 14.558 3.50555 14.5221C3.45435 14.4934 3.40316 14.436 3.35928 14.4002C3.30077 14.3428 3.24956 14.2854 3.19104 14.2351C3.17642 14.2208 3.16179 14.2136 3.14716 14.1993C3.13253 14.1921 3.11059 14.1849 3.09596 14.1778C2.9643 14.1347 2.81803 14.0845 2.71563 13.984C2.6498 13.9195 2.58398 13.8549 2.54009 13.776C2.50352 13.7114 2.45963 13.6468 2.41574 13.5823C2.37917 13.5392 2.34261 13.4962 2.30604 13.4603C2.19632 13.3455 2.0793 13.2379 1.96959 13.116C1.85256 12.9868 1.78672 12.829 1.69895 12.6855C1.68432 12.664 1.66969 12.6424 1.65506 12.6209C1.60386 12.5707 1.55266 12.5205 1.49415 12.4775C1.48684 12.4775 1.47222 12.4631 1.46491 12.4559C1.39177 12.4272 1.31862 12.3985 1.25279 12.3483C1.15771 12.2694 1.08457 12.1761 1.03337 12.0685C0.952919 11.8892 0.938286 11.6954 0.960228 11.5017V11.3941C0.960228 11.3941 0.960228 11.3654 0.960228 11.3511C0.960228 11.3367 0.9529 11.3224 0.945586 11.308L0.916345 11.265L0.894403 11.2363C0.850518 11.2004 0.806616 11.1646 0.762731 11.1287C0.733474 11.1 0.71155 11.0641 0.689607 11.0282C0.66035 10.9852 0.645702 10.9493 0.62376 10.8991C0.550618 10.7197 0.50674 10.526 0.448227 10.3395C0.411656 10.2534 0.382403 10.1673 0.36046 10.0812C0.345832 9.97361 0.34584 9.86602 0.34584 9.76558C0.34584 9.75123 0.34584 9.7297 0.34584 9.71536L0.331197 9.67231C0.331197 9.67231 0.323891 9.6436 0.316577 9.63643C0.316577 9.62925 0.301956 9.62209 0.301956 9.60775C0.250757 9.57187 0.206855 9.52882 0.170284 9.48577C0.0898281 9.37816 0.0459492 9.2562 0.0166925 9.13424C-0.0271926 8.91184 0.0166952 8.67508 0.133722 8.4742L0.148342 8.43834C0.148342 8.43834 0.170291 8.37376 0.177605 8.34507C0.177605 8.33072 0.177613 8.30919 0.184927 8.29484C0.184927 8.28049 0.184927 8.26615 0.184927 8.2518C0.184927 8.23745 0.184927 8.2231 0.184927 8.20157C0.15567 8.08679 0.111773 7.972 0.104459 7.85004C0.0971449 7.69938 0.141042 7.55591 0.184927 7.41242C0.184927 7.38372 0.199547 7.35501 0.199547 7.32631C0.199547 7.31196 0.199547 7.3048 0.199547 7.29045C0.199547 7.2761 0.199547 7.26175 0.199547 7.24741C0.199547 7.24741 0.199547 7.23306 0.199547 7.22588C0.184919 7.16849 0.162978 7.1111 0.155664 7.04653C0.133721 6.95326 0.141035 6.85283 0.155664 6.75956C0.177606 6.59455 0.243443 6.44389 0.301956 6.28606V6.27169C0.301956 6.27169 0.301956 6.26453 0.301956 6.25735C0.316585 6.09952 0.360465 5.94169 0.411665 5.83407C0.426293 5.80538 0.440912 5.78384 0.448227 5.75515C0.448227 5.67623 0.477488 5.59015 0.521373 5.53993C0.521373 5.53275 0.535993 5.52558 0.535993 5.5184C0.535993 5.5184 0.536007 5.50406 0.550636 5.50406C0.550636 5.49689 0.557942 5.48972 0.565256 5.48254C0.565256 5.48254 0.565263 5.46818 0.572578 5.46818C0.572578 5.32469 0.572575 5.18121 0.638402 5.0449C0.653031 5.0162 0.667665 4.98751 0.689607 4.95881C0.718864 4.91577 0.740803 4.87271 0.777374 4.83684C0.835887 4.77945 0.901701 4.73641 0.945586 4.70771C0.960214 4.69336 0.974841 4.67902 0.989469 4.67185C0.996783 4.6575 1.01142 4.64315 1.01873 4.6288C1.01873 4.60728 1.03336 4.59292 1.04067 4.5714C1.04067 4.514 1.05532 4.4638 1.05532 4.4064C1.05532 4.34183 1.08457 4.27725 1.0992 4.21268C1.12114 4.14094 1.14308 4.06202 1.16502 3.99028C1.18697 3.91854 1.22354 3.86115 1.26011 3.7894C1.28206 3.76071 1.29668 3.73201 1.32594 3.70332C1.34788 3.67462 1.36982 3.65308 1.39176 3.62439C1.43565 3.58134 1.47953 3.53831 1.53073 3.50244C1.5673 3.47374 1.6185 3.43069 1.66238 3.40917C1.70627 3.38765 1.75016 3.3733 1.78673 3.3446C1.80136 3.33743 1.80867 3.32307 1.8233 3.3159L1.85986 3.27286C1.85986 3.27286 1.87449 3.25134 1.8818 3.23699C1.8818 3.22264 1.88913 3.20112 1.89644 3.18677C1.91107 3.1222 1.9257 3.05046 1.94765 2.98589C1.9769 2.88545 2.02078 2.79935 2.07198 2.70608C2.12318 2.60564 2.21094 2.5339 2.29871 2.46216C2.36454 2.40477 2.45964 2.37608 2.54009 2.34021C2.54009 2.34021 2.55472 2.32585 2.56204 2.32585C2.56935 2.31867 2.58396 2.30434 2.59128 2.29717C2.7083 2.14651 2.81803 1.97433 2.99357 1.87389C3.0594 1.83801 3.13252 1.80214 3.20567 1.78062C3.27149 1.75909 3.34466 1.75191 3.41048 1.75191C3.42511 1.75191 3.43972 1.75191 3.46167 1.74473C3.47629 1.74473 3.48362 1.74475 3.49825 1.73757C3.50556 1.73757 3.52018 1.73038 3.52749 1.72321C3.54212 1.71604 3.54945 1.70886 3.56408 1.70169L3.59334 1.67301C3.59334 1.67301 3.61526 1.64429 3.62258 1.62994C3.65915 1.56537 3.69572 1.49364 3.73961 1.43624C3.79081 1.3645 3.84931 1.29994 3.91514 1.24255C3.98828 1.17798 4.06875 1.12774 4.1492 1.09187C4.21503 1.056 4.2955 1.04165 4.36864 1.02731C4.41252 1.01296 4.4564 1.00579 4.50029 0.991443L4.54417 0.96274C4.70509 0.855126 4.85136 0.73316 5.04153 0.690114C5.13662 0.668591 5.23171 0.661433 5.3268 0.661433C5.40725 0.661433 5.48038 0.690121 5.56083 0.697295C5.57546 0.697295 5.59011 0.697295 5.60474 0.697295C5.61937 0.697295 5.63399 0.697295 5.64862 0.697295C5.66325 0.697295 5.67788 0.690129 5.69251 0.682955C5.70713 0.675781 5.72175 0.668607 5.72907 0.661433L5.76563 0.625548C5.82414 0.56098 5.88998 0.496426 5.95581 0.439032C5.99238 0.403161 6.0509 0.374453 6.1021 0.360104C6.14598 0.338581 6.18987 0.324234 6.24107 0.31706C6.29958 0.302712 6.36541 0.295538 6.42392 0.295538C6.49707 0.295538 6.56288 0.295538 6.63602 0.295538C6.65065 0.295538 6.66527 0.295538 6.6799 0.295538C6.74573 0.28119 6.80425 0.252487 6.87008 0.245313C6.95053 0.230965 7.02368 0.245327 7.10414 0.259676C7.17728 0.26685 7.24311 0.281198 7.31625 0.281198H7.3455C7.3455 0.281198 7.40402 0.26685 7.42596 0.259676C7.43328 0.259676 7.4406 0.252487 7.45523 0.245313C7.46985 0.230965 7.48447 0.223791 7.48447 0.223791L7.49911 0.20945C7.57225 0.144882 7.6527 0.0731315 7.74779 0.0444344C7.83556 0.0157373 7.93064 -0.00578371 8.01841 0.00139056C8.10618 0.00856483 8.20127 0.0300841 8.27441 0.0874783C8.33292 0.12335 8.39142 0.166405 8.44262 0.20945C8.50845 0.238148 8.56697 0.274007 8.6328 0.309879C8.65474 0.317053 8.66936 0.331408 8.6913 0.338582C8.70593 0.338582 8.72056 0.345748 8.74251 0.352923C8.75714 0.352923 8.77908 0.352923 8.79371 0.352923C8.80834 0.352923 8.83029 0.352923 8.84492 0.352923C8.94 0.3314 9.02777 0.288373 9.11554 0.259676C9.18868 0.21663 9.26914 0.180748 9.3496 0.159225C9.46662 0.130528 9.57634 0.13052 9.69336 0.173566C9.78845 0.209437 9.8689 0.259658 9.94204 0.331401C9.99324 0.381621 10.0371 0.439016 10.081 0.489236L10.103 0.510758C10.103 0.510758 10.1688 0.539453 10.198 0.553801C10.22 0.553801 10.2346 0.56099 10.2565 0.568164C10.3443 0.575338 10.4321 0.57533 10.5125 0.582505C10.5564 0.582505 10.6076 0.596866 10.6515 0.618389C10.7173 0.647086 10.7758 0.682953 10.8417 0.725999C10.8856 0.747521 10.9294 0.769042 10.9806 0.790564C11.1269 0.840784 11.2805 0.869475 11.4195 0.941218C11.4707 0.969915 11.5219 1.00578 11.5658 1.04883C11.6316 1.10622 11.6755 1.18514 11.7267 1.24971V1.26407C11.7633 1.29277 11.7925 1.31428 11.8145 1.32145C11.8291 1.32145 11.8437 1.32864 11.8584 1.33582C11.873 1.33582 11.8803 1.33582 11.8949 1.33582H11.9388C11.9827 1.33582 12.0339 1.32147 12.0778 1.31429C12.1509 1.29995 12.2168 1.28559 12.2972 1.28559C12.3996 1.28559 12.502 1.32862 12.5898 1.38602C12.758 1.50081 12.8458 1.68017 12.9116 1.8667C12.9116 1.87388 12.9116 1.88106 12.9189 1.89541C12.9482 1.94563 12.9701 1.99584 12.9847 2.01736C13.0067 2.05323 13.0359 2.08192 13.0506 2.10345C13.0652 2.11062 13.0725 2.12497 13.0871 2.13215C13.1018 2.13932 13.1091 2.1465 13.1237 2.16085C13.1676 2.18238 13.2042 2.19673 13.248 2.21108C13.3285 2.23977 13.409 2.26846 13.4675 2.33303C13.5553 2.41194 13.6211 2.51239 13.6869 2.60565C13.7162 2.6487 13.7454 2.68456 13.782 2.7276C13.8039 2.74913 13.8185 2.76349 13.8405 2.78501C13.8551 2.79218 13.8698 2.79936 13.8771 2.81371C13.9136 2.83524 13.9575 2.84958 13.9941 2.87828C14.0453 2.91415 14.0892 2.95718 14.1258 3.00023C14.2282 3.11502 14.2867 3.25851 14.3598 3.38765C14.3744 3.40917 14.3891 3.43068 14.4037 3.44503C14.4037 3.44503 14.4183 3.45222 14.4256 3.45939C14.5427 3.53114 14.6451 3.61722 14.7182 3.73918C14.7987 3.86832 14.8499 4.00462 14.9011 4.14094L14.923 4.19116C14.9961 4.31312 15.04 4.44943 15.062 4.59292C15.062 4.62162 15.0766 4.65032 15.0766 4.64314C15.0839 4.67184 15.0985 4.69337 15.1059 4.72207C15.1059 4.73642 15.1205 4.74358 15.1278 4.75075C15.1278 4.75075 15.1278 4.75794 15.1351 4.76512C15.1497 4.77946 15.1644 4.79381 15.1863 4.80816L15.2082 4.8225C15.2741 4.85837 15.3253 4.89424 15.3765 4.95163C15.4423 5.02337 15.4862 5.09512 15.5228 5.18121C15.6105 5.3534 15.6032 5.55427 15.5959 5.73362C15.5959 5.73362 15.5959 5.74797 15.5959 5.75515C15.6105 5.85559 15.6105 5.94885 15.6105 6.04929C15.6105 6.06364 15.6105 6.08517 15.6105 6.09952C15.6105 6.12104 15.6178 6.14974 15.6252 6.17127C15.6252 6.17844 15.6325 6.19279 15.6398 6.19997C15.6398 6.19997 15.6398 6.21432 15.6471 6.22149C15.6544 6.23584 15.6617 6.25018 15.669 6.25735C15.691 6.28605 15.7129 6.31476 15.7276 6.33628C15.8592 6.47259 15.947 6.63041 15.9835 6.81695C16.0055 6.91738 16.0055 7.03936 15.9835 7.1398C15.9616 7.23306 15.9397 7.31915 15.9031 7.40524C15.9031 7.40524 15.9031 7.43393 15.9031 7.4411C15.9031 7.45545 15.9031 7.47698 15.9031 7.49133C15.9031 7.5272 15.9031 7.55591 15.9031 7.59178C15.9177 7.69222 15.9397 7.79265 15.947 7.89309C15.9616 8.00787 15.947 8.12267 15.925 8.23746C15.9177 8.31638 15.9104 8.39528 15.9104 8.4742V8.49572C15.9104 8.61768 15.9104 8.73965 15.9031 8.85443C15.9031 8.919 15.8812 8.99076 15.8592 9.04815C15.8373 9.11272 15.8007 9.17729 15.7714 9.24903C15.7714 9.26338 15.7641 9.27773 15.7568 9.29208C15.7568 9.30643 15.7568 9.31359 15.7568 9.32794C15.7568 9.34229 15.7568 9.34945 15.7568 9.3638C15.7568 9.37815 15.7568 9.39252 15.7568 9.40687C15.7568 9.44274 15.7641 9.47142 15.7714 9.5073C15.7861 9.56469 15.8007 9.61492 15.808 9.67231C15.83 9.7871 15.8226 9.89472 15.808 10.0095C15.7934 10.1171 15.7495 10.2247 15.6983 10.3252C15.6471 10.4184 15.5813 10.4902 15.5081 10.5691C15.4642 10.6337 15.4131 10.6839 15.3619 10.7413C15.3545 10.7556 15.3399 10.77 15.3326 10.7771C15.3326 10.7843 15.3253 10.7987 15.318 10.8058C15.318 10.8058 15.3033 10.8704 15.3033 10.8848C15.3033 10.8991 15.3033 10.9135 15.3033 10.9206C15.3033 10.9924 15.3033 11.0713 15.3033 11.143C15.3033 11.3224 15.2814 11.5089 15.1936 11.6739C15.157 11.7457 15.1132 11.8174 15.0546 11.8676C15.0035 11.9179 14.9449 11.9537 14.8864 11.9968C14.8498 12.0183 14.8133 12.047 14.7767 12.0757C14.7475 12.0972 14.7109 12.1116 14.6743 12.1259C14.6597 12.1331 14.6377 12.1403 14.6231 12.1546C14.6158 12.1546 14.6085 12.169 14.5939 12.1761C14.5939 12.1761 14.5865 12.1833 14.5792 12.1905C14.5792 12.1905 14.5719 12.2048 14.5646 12.2048V12.2263C14.5646 12.2263 14.55 12.2407 14.5426 12.2479C14.5426 12.2479 14.5426 12.2622 14.5426 12.2694C14.5426 12.2766 14.5426 12.2909 14.5426 12.2981C14.5426 12.3698 14.5353 12.4416 14.5134 12.5133C14.4915 12.5994 14.4622 12.6855 14.411 12.7644C14.3671 12.829 14.3159 12.9007 14.2574 12.9509C14.2062 13.0012 14.1477 13.0442 14.0892 13.0872C14.0672 13.1088 14.0453 13.1231 14.0233 13.1447C14.0233 13.1447 14.0233 13.1447 14.0233 13.1518C13.9648 13.281 13.9063 13.4101 13.8259 13.5249C13.7235 13.6684 13.5626 13.7473 13.409 13.8262C13.3651 13.8549 13.3285 13.8836 13.2846 13.9123C13.2261 13.9482 13.1676 13.9769 13.1091 14.0127C13.0725 14.0414 13.0359 14.063 12.9994 14.0917C12.9701 14.1204 12.9482 14.1491 12.9189 14.1778C12.8458 14.271 12.7726 14.3643 12.6775 14.4432C12.5313 14.5508 12.3704 14.6225 12.2094 14.7086C12.1948 14.7158 12.1875 14.7302 12.1729 14.7373C12.0924 14.8091 12.0119 14.8736 11.9169 14.931C11.7998 14.9956 11.6682 15.0387 11.5365 15.0961C11.5146 15.1104 11.4926 15.1176 11.4707 15.1319C11.4414 15.1534 11.4122 15.1678 11.3829 15.1965C11.3391 15.2467 11.2879 15.2898 11.244 15.3328C11.1562 15.4045 11.0611 15.4548 10.9514 15.4978C10.7685 15.5624 10.5711 15.4978 10.3882 15.4691C10.3663 15.4691 10.3516 15.4691 10.3297 15.4691C10.3151 15.4691 10.2931 15.4691 10.2785 15.4763C10.2565 15.4763 10.2419 15.4906 10.22 15.4978C10.198 15.5122 10.1834 15.5193 10.1615 15.5337C10.1322 15.5552 10.103 15.5767 10.0737 15.5982C10.0298 15.6341 9.97861 15.6628 9.93472 15.6915C9.89815 15.713 9.85426 15.7274 9.81769 15.7417C9.76649 15.7633 9.71529 15.7704 9.65678 15.7848C9.48124 15.8278 9.29839 15.8207 9.11554 15.8565C9.07165 15.8709 9.03507 15.8852 8.99119 15.8996C8.86685 15.9498 8.74983 16 8.61086 16H8.59624V15.9139Z" fill="#D7E3B5"/>
<path d="M12.0049 10.569C12.0049 10.569 12.0049 10.5546 12.0122 10.5475C12.0122 10.5546 12.0122 10.5618 12.0049 10.569C12.0049 10.569 12.0049 10.569 12.0049 10.5761C12.0049 10.5761 12.0049 10.5762 12.0049 10.569ZM13.6945 7.3549C13.7749 7.70644 13.7237 8.1369 13.5335 8.39518C13.5116 8.43822 13.4823 8.47408 13.4604 8.51713C13.4311 8.5817 13.4019 8.64628 13.358 8.71085C13.358 8.71085 13.358 8.71801 13.3507 8.72519C13.3361 8.76106 13.3141 8.79692 13.2995 8.8328C13.2995 8.84714 13.2922 8.86149 13.2849 8.87584C13.2849 8.89019 13.2775 8.90454 13.2775 8.91888C13.2775 8.93323 13.2775 8.94759 13.2775 8.95477C13.2775 8.97629 13.2775 9.00499 13.2775 9.02652C13.2775 9.04804 13.2776 9.07672 13.2849 9.09824C13.3068 9.21303 13.3141 9.32783 13.3214 9.44979C13.3214 9.45697 13.3214 9.4713 13.3214 9.47848V9.50718C13.3946 9.90894 13.3434 10.3179 13.1093 10.6622C13.0289 10.7842 12.9191 10.8846 12.7875 10.9564C12.707 10.9994 12.6266 11.021 12.5461 11.0568C12.5315 11.0712 12.5169 11.0783 12.5022 11.0927C12.4876 11.107 12.4803 11.1214 12.4657 11.1286C12.4437 11.1573 12.4291 11.186 12.4072 11.2147C12.3267 11.3653 12.2609 11.5232 12.1658 11.6666C12.1146 11.7456 12.0561 11.8173 11.9902 11.8747C11.9464 11.9177 11.8952 11.9464 11.8513 11.9823C11.8513 11.9823 11.8367 11.9895 11.8367 11.9967C11.8074 12.0253 11.7854 12.054 11.7635 12.0827C11.7489 12.0971 11.7416 12.1114 11.7269 12.1258C11.566 12.3267 11.4051 12.5204 11.1784 12.6567C11.0467 12.7284 10.9077 12.7643 10.7541 12.7715C10.6664 12.7715 10.5786 12.7571 10.4908 12.7428C10.4689 12.7428 10.4469 12.7428 10.4323 12.7428C10.4031 12.7428 10.3811 12.7499 10.3519 12.7571C10.3372 12.7571 10.3153 12.7715 10.3007 12.7786C10.2787 12.793 10.2495 12.8073 10.2275 12.8217C10.2056 12.836 10.1836 12.8576 10.169 12.8719C10.0812 12.9652 10.0081 13.0656 9.91302 13.1517C9.81062 13.2378 9.7009 13.3096 9.58387 13.3741C9.43759 13.453 9.26937 13.5033 9.10845 13.5248C8.9256 13.5463 8.75007 13.5248 8.56721 13.5033C8.53064 13.5033 8.49407 13.5033 8.4575 13.5033C8.29659 13.5319 8.1503 13.5893 7.98938 13.6109C7.93087 13.618 7.87236 13.6252 7.81385 13.6252C7.69682 13.6252 7.5798 13.6109 7.47008 13.575C7.33843 13.532 7.22141 13.4745 7.1117 13.4028C6.98004 13.3239 6.87763 13.2091 6.76061 13.1158C6.74598 13.1015 6.72403 13.0943 6.7094 13.0871C6.69477 13.08 6.67283 13.0728 6.6582 13.0656C6.62894 13.0656 6.60701 13.0513 6.57775 13.0513C6.56312 13.0513 6.5485 13.0513 6.53387 13.0513C6.42416 13.0656 6.31445 13.1015 6.19742 13.1087C6.06577 13.1158 5.93411 13.1087 5.80245 13.08C5.52451 13.0082 5.29776 12.836 5.12954 12.6495C5.09297 12.6136 5.0564 12.5778 5.01983 12.5419C4.99789 12.5276 4.98327 12.506 4.96132 12.4917C4.95401 12.4917 4.93938 12.4773 4.93206 12.4702C4.84429 12.4343 4.74921 12.4128 4.66144 12.3769C4.50053 12.3051 4.36888 12.2119 4.25185 12.0827C4.12751 11.9536 4.04705 11.7814 3.98123 11.6164C3.9154 11.4514 3.90076 11.2792 3.85688 11.1142C3.85688 11.0999 3.84226 11.0784 3.84226 11.064C3.84226 11.0497 3.82763 11.0353 3.82031 11.021C3.813 11.0066 3.80568 10.9923 3.79105 10.9851C3.78374 10.9707 3.7691 10.9636 3.76179 10.9492C3.75447 10.942 3.73984 10.9349 3.73253 10.9205C3.64476 10.8559 3.54236 10.8129 3.4619 10.7412C3.34488 10.6407 3.23518 10.5116 3.15472 10.3896C3.05232 10.239 2.98649 10.0668 2.9426 9.88741C2.89872 9.72241 2.89871 9.55023 2.8914 9.37805C2.8914 9.29196 2.8914 9.20586 2.8914 9.12694C2.8914 9.04085 2.92798 8.94759 2.9426 8.8615C2.9426 8.84715 2.9426 8.8328 2.9426 8.81846C2.9426 8.80411 2.9426 8.78975 2.9426 8.76823C2.9426 8.73953 2.94261 8.71802 2.92798 8.68932C2.92798 8.68932 2.92798 8.67498 2.92066 8.6678C2.92066 8.6678 2.92065 8.65344 2.91334 8.65344C2.86214 8.57452 2.81095 8.49562 2.75975 8.4167C2.67929 8.26604 2.63541 8.10102 2.62078 7.93601C2.59884 7.75666 2.62078 7.55577 2.6866 7.39076C2.7378 7.2688 2.80364 7.1612 2.87678 7.04641V7.03205C2.87678 6.80965 2.89139 6.58009 3.00111 6.37921C3.02305 6.32899 3.05233 6.28593 3.0889 6.23571C3.0889 6.19984 3.08889 6.1568 3.10352 6.12092C3.10352 6.09223 3.11082 6.0707 3.11814 6.04918C3.12545 6.01331 3.13276 5.97026 3.14008 5.94157C3.14739 5.91287 3.15471 5.88418 3.16202 5.85548C3.16202 5.84831 3.16202 5.83395 3.16202 5.82678C3.16202 5.79808 3.16935 5.76939 3.17666 5.74069C3.17666 5.71917 3.17666 5.70481 3.17666 5.69046C3.18398 5.64742 3.19128 5.59719 3.19128 5.59719C3.20591 5.50393 3.22055 5.41784 3.24981 5.33175C3.31564 5.13087 3.4034 4.95869 3.54237 4.79368C3.66671 4.64302 3.83494 4.54977 4.02511 4.49237C4.03242 4.49237 4.03974 4.49237 4.04705 4.48519C4.07631 4.47802 4.09824 4.47084 4.1275 4.46367C4.13481 4.46367 4.14945 4.46366 4.15676 4.45649C4.1787 4.44931 4.20796 4.44216 4.22991 4.42781C4.25185 4.41346 4.27379 4.3991 4.29573 4.39192C4.31767 4.37757 4.33231 4.36323 4.34694 4.34888C4.36888 4.32018 4.39082 4.29867 4.41276 4.26997C4.47859 4.18388 4.52978 4.09779 4.58829 4.00453C4.68338 3.86104 4.8004 3.73907 4.94668 3.63863C4.97594 3.61711 5.00519 3.5884 5.03445 3.5597C5.07102 3.52383 5.1076 3.48079 5.13686 3.45209C5.25388 3.33731 5.3709 3.2297 5.51719 3.15079C5.67079 3.05752 5.83171 3.01448 6.00725 2.99295C6.06576 2.99295 6.12427 2.99295 6.18278 2.99295C6.21204 2.99295 6.24861 2.99295 6.27787 2.99295C6.30713 2.99295 6.32907 2.98576 6.35101 2.97859C6.42416 2.95707 6.48999 2.92837 6.56313 2.8925C6.7021 2.82076 6.84107 2.75618 6.99467 2.70596C7.09707 2.67727 7.19946 2.66294 7.30917 2.65576C7.39694 2.65576 7.48472 2.67727 7.56517 2.70596C7.62369 2.72031 7.6822 2.73468 7.74803 2.74185C7.82117 2.74185 7.8943 2.74185 7.96744 2.74185C8.19418 2.71315 8.42092 2.6414 8.65498 2.66292C8.89635 2.69162 9.08651 2.83511 9.29131 2.94273C9.32788 2.95708 9.35715 2.97142 9.39372 2.97859C9.43029 2.98576 9.46685 2.99294 9.4961 3.00011C9.53999 3.00011 9.59119 3.00011 9.63508 3.00011C9.70822 2.99294 9.78137 2.98577 9.85451 2.96425H9.87646C9.97154 2.91403 10.0739 2.87097 10.1836 2.8638C10.3811 2.84228 10.5567 2.87817 10.7322 2.97143C10.9077 3.05752 11.0321 3.20817 11.1418 3.35883C11.2369 3.48796 11.2808 3.63863 11.3393 3.78929C11.3539 3.82516 11.3685 3.85387 11.3832 3.88974C11.4124 3.95431 11.4417 4.01168 11.4709 4.07625C11.4856 4.09778 11.5002 4.1193 11.5148 4.14082C11.5295 4.15517 11.5441 4.16954 11.5514 4.18388C11.566 4.19823 11.5806 4.21257 11.5953 4.21975C11.6099 4.22692 11.6245 4.24128 11.6392 4.24845C11.6757 4.2628 11.7196 4.27715 11.7562 4.29149C11.8074 4.30584 11.8659 4.32017 11.9171 4.3417C12.0049 4.37039 12.078 4.42062 12.1438 4.47801C12.2755 4.58562 12.3779 4.72911 12.4584 4.87977C12.5461 5.02325 12.6193 5.18111 12.6997 5.32459C12.7363 5.38198 12.7656 5.43221 12.8021 5.48243C12.846 5.53265 12.8899 5.58287 12.9265 5.64026C12.9777 5.712 13.0142 5.80525 13.0435 5.89134C13.102 6.05635 13.124 6.23571 13.1459 6.40789C13.1532 6.45094 13.1605 6.50116 13.1751 6.5442C13.1751 6.56573 13.1898 6.58725 13.1971 6.60877C13.2044 6.62312 13.2117 6.64465 13.2263 6.65899C13.2263 6.65899 13.2263 6.66616 13.2263 6.67333L13.241 6.6877C13.4677 6.85988 13.5994 7.11098 13.6579 7.3836L13.6945 7.3549Z" fill="#5C5655"/>
<path d="M12.0049 10.569C12.0049 10.569 12.0049 10.5546 12.0122 10.5475C12.0122 10.5546 12.0122 10.5618 12.0049 10.569ZM12.0049 10.569C12.0049 10.569 12.0049 10.569 12.0049 10.5761C12.0049 10.5761 12.0049 10.5762 12.0049 10.569ZM13.6945 7.3549C13.7749 7.70644 13.7237 8.1369 13.5335 8.39518C13.5116 8.43822 13.4823 8.47408 13.4604 8.51713C13.4311 8.5817 13.4019 8.64628 13.358 8.71085C13.358 8.71085 13.358 8.71801 13.3507 8.72519C13.3361 8.76106 13.3141 8.79692 13.2995 8.8328C13.2995 8.84714 13.2922 8.86149 13.2849 8.87584C13.2849 8.89019 13.2775 8.90454 13.2775 8.91888C13.2775 8.93323 13.2775 8.94759 13.2775 8.95477C13.2775 8.97629 13.2775 9.00499 13.2775 9.02652C13.2775 9.04804 13.2776 9.07672 13.2849 9.09824C13.3068 9.21303 13.3141 9.32783 13.3214 9.44979C13.3214 9.45697 13.3214 9.4713 13.3214 9.47848V9.50718C13.3946 9.90894 13.3434 10.3179 13.1093 10.6622C13.0289 10.7842 12.9191 10.8846 12.7875 10.9564C12.707 10.9994 12.6266 11.021 12.5461 11.0568C12.5315 11.0712 12.5169 11.0783 12.5022 11.0927C12.4876 11.107 12.4803 11.1214 12.4657 11.1286C12.4437 11.1573 12.4291 11.186 12.4072 11.2147C12.3267 11.3653 12.2609 11.5232 12.1658 11.6666C12.1146 11.7456 12.0561 11.8173 11.9902 11.8747C11.9464 11.9177 11.8952 11.9464 11.8513 11.9823C11.8513 11.9823 11.8367 11.9895 11.8367 11.9967C11.8074 12.0253 11.7854 12.054 11.7635 12.0827C11.7489 12.0971 11.7416 12.1114 11.7269 12.1258C11.566 12.3267 11.4051 12.5204 11.1784 12.6567C11.0467 12.7284 10.9077 12.7643 10.7541 12.7715C10.6664 12.7715 10.5786 12.7571 10.4908 12.7428C10.4689 12.7428 10.4469 12.7428 10.4323 12.7428C10.4031 12.7428 10.3811 12.7499 10.3519 12.7571C10.3372 12.7571 10.3153 12.7715 10.3007 12.7786C10.2787 12.793 10.2495 12.8073 10.2275 12.8217C10.2056 12.836 10.1836 12.8576 10.169 12.8719C10.0812 12.9652 10.0081 13.0656 9.91302 13.1517C9.81062 13.2378 9.7009 13.3096 9.58387 13.3741C9.43759 13.453 9.26937 13.5033 9.10845 13.5248C8.9256 13.5463 8.75007 13.5248 8.56721 13.5033C8.53064 13.5033 8.49407 13.5033 8.4575 13.5033C8.29659 13.5319 8.1503 13.5893 7.98938 13.6109C7.93087 13.618 7.87236 13.6252 7.81385 13.6252C7.69682 13.6252 7.5798 13.6109 7.47008 13.575C7.33843 13.532 7.22141 13.4745 7.1117 13.4028C6.98004 13.3239 6.87763 13.2091 6.76061 13.1158C6.74598 13.1015 6.72403 13.0943 6.7094 13.0871C6.69477 13.08 6.67283 13.0728 6.6582 13.0656C6.62894 13.0656 6.60701 13.0513 6.57775 13.0513C6.56312 13.0513 6.5485 13.0513 6.53387 13.0513C6.42416 13.0656 6.31445 13.1015 6.19742 13.1087C6.06577 13.1158 5.93411 13.1087 5.80245 13.08C5.52451 13.0082 5.29776 12.836 5.12954 12.6495C5.09297 12.6136 5.0564 12.5778 5.01983 12.5419C4.99789 12.5276 4.98327 12.506 4.96132 12.4917C4.95401 12.4917 4.93938 12.4773 4.93206 12.4702C4.84429 12.4343 4.74921 12.4128 4.66144 12.3769C4.50053 12.3051 4.36888 12.2119 4.25185 12.0827C4.12751 11.9536 4.04705 11.7814 3.98123 11.6164C3.9154 11.4514 3.90076 11.2792 3.85688 11.1142C3.85688 11.0999 3.84226 11.0784 3.84226 11.064C3.84226 11.0497 3.82763 11.0353 3.82031 11.021C3.813 11.0066 3.80568 10.9923 3.79105 10.9851C3.78374 10.9707 3.7691 10.9636 3.76179 10.9492C3.75447 10.942 3.73984 10.9349 3.73253 10.9205C3.64476 10.8559 3.54236 10.8129 3.4619 10.7412C3.34488 10.6407 3.23518 10.5116 3.15472 10.3896C3.05232 10.239 2.98649 10.0668 2.9426 9.88741C2.89872 9.72241 2.89871 9.55023 2.8914 9.37805C2.8914 9.29196 2.8914 9.20586 2.8914 9.12694C2.8914 9.04085 2.92798 8.94759 2.9426 8.8615C2.9426 8.84715 2.9426 8.8328 2.9426 8.81846C2.9426 8.80411 2.9426 8.78975 2.9426 8.76823C2.9426 8.73953 2.94261 8.71802 2.92798 8.68932C2.92798 8.68932 2.92798 8.67498 2.92066 8.6678C2.92066 8.6678 2.92065 8.65344 2.91334 8.65344C2.86214 8.57452 2.81095 8.49562 2.75975 8.4167C2.67929 8.26604 2.63541 8.10102 2.62078 7.93601C2.59884 7.75666 2.62078 7.55577 2.6866 7.39076C2.7378 7.2688 2.80364 7.1612 2.87678 7.04641V7.03205C2.87678 6.80965 2.89139 6.58009 3.00111 6.37921C3.02305 6.32899 3.05233 6.28593 3.0889 6.23571C3.0889 6.19984 3.08889 6.1568 3.10352 6.12092C3.10352 6.09223 3.11082 6.0707 3.11814 6.04918C3.12545 6.01331 3.13276 5.97026 3.14008 5.94157C3.14739 5.91287 3.15471 5.88418 3.16202 5.85548C3.16202 5.84831 3.16202 5.83395 3.16202 5.82678C3.16202 5.79808 3.16935 5.76939 3.17666 5.74069C3.17666 5.71917 3.17666 5.70481 3.17666 5.69046C3.18398 5.64742 3.19128 5.59719 3.19128 5.59719C3.20591 5.50393 3.22055 5.41784 3.24981 5.33175C3.31564 5.13087 3.4034 4.95869 3.54237 4.79368C3.66671 4.64302 3.83494 4.54977 4.02511 4.49237C4.03242 4.49237 4.03974 4.49237 4.04705 4.48519C4.07631 4.47802 4.09824 4.47084 4.1275 4.46367C4.13481 4.46367 4.14945 4.46366 4.15676 4.45649C4.1787 4.44931 4.20796 4.44216 4.22991 4.42781C4.25185 4.41346 4.27379 4.3991 4.29573 4.39192C4.31767 4.37757 4.33231 4.36323 4.34694 4.34888C4.36888 4.32018 4.39082 4.29867 4.41276 4.26997C4.47859 4.18388 4.52978 4.09779 4.58829 4.00453C4.68338 3.86104 4.8004 3.73907 4.94668 3.63863C4.97594 3.61711 5.00519 3.5884 5.03445 3.5597C5.07102 3.52383 5.1076 3.48079 5.13686 3.45209C5.25388 3.33731 5.3709 3.2297 5.51719 3.15079C5.67079 3.05752 5.83171 3.01448 6.00725 2.99295C6.06576 2.99295 6.12427 2.99295 6.18278 2.99295C6.21204 2.99295 6.24861 2.99295 6.27787 2.99295C6.30713 2.99295 6.32907 2.98576 6.35101 2.97859C6.42416 2.95707 6.48999 2.92837 6.56313 2.8925C6.7021 2.82076 6.84107 2.75618 6.99467 2.70596C7.09707 2.67727 7.19946 2.66294 7.30917 2.65576C7.39694 2.65576 7.48472 2.67727 7.56517 2.70596C7.62369 2.72031 7.6822 2.73468 7.74803 2.74185C7.82117 2.74185 7.8943 2.74185 7.96744 2.74185C8.19418 2.71315 8.42092 2.6414 8.65498 2.66292C8.89635 2.69162 9.08651 2.83511 9.29131 2.94273C9.32788 2.95708 9.35715 2.97142 9.39372 2.97859C9.43029 2.98576 9.46685 2.99294 9.4961 3.00011C9.53999 3.00011 9.59119 3.00011 9.63508 3.00011C9.70822 2.99294 9.78137 2.98577 9.85451 2.96425H9.87646C9.97154 2.91403 10.0739 2.87097 10.1836 2.8638C10.3811 2.84228 10.5567 2.87817 10.7322 2.97143C10.9077 3.05752 11.0321 3.20817 11.1418 3.35883C11.2369 3.48796 11.2808 3.63863 11.3393 3.78929C11.3539 3.82516 11.3685 3.85387 11.3832 3.88974C11.4124 3.95431 11.4417 4.01168 11.4709 4.07625C11.4856 4.09778 11.5002 4.1193 11.5148 4.14082C11.5295 4.15517 11.5441 4.16954 11.5514 4.18388C11.566 4.19823 11.5806 4.21257 11.5953 4.21975C11.6099 4.22692 11.6245 4.24128 11.6392 4.24845C11.6757 4.2628 11.7196 4.27715 11.7562 4.29149C11.8074 4.30584 11.8659 4.32017 11.9171 4.3417C12.0049 4.37039 12.078 4.42062 12.1438 4.47801C12.2755 4.58562 12.3779 4.72911 12.4584 4.87977C12.5461 5.02325 12.6193 5.18111 12.6997 5.32459C12.7363 5.38198 12.7656 5.43221 12.8021 5.48243C12.846 5.53265 12.8899 5.58287 12.9265 5.64026C12.9777 5.712 13.0142 5.80525 13.0435 5.89134C13.102 6.05635 13.124 6.23571 13.1459 6.40789C13.1532 6.45094 13.1605 6.50116 13.1751 6.5442C13.1751 6.56573 13.1898 6.58725 13.1971 6.60877C13.2044 6.62312 13.2117 6.64465 13.2263 6.65899C13.2263 6.65899 13.2263 6.66616 13.2263 6.67333L13.241 6.6877C13.4677 6.85988 13.5994 7.11098 13.6579 7.3836L13.6945 7.3549Z" stroke="#5B5655" stroke-width="0.5" stroke-miterlimit="10"/>
</svg>
